<?xml version="1.0" encoding="utf-8"?>
<!-- Generator: Adobe Illustrator 22.0.1, SVG Export Plug-In . SVG Version: 6.00 Build 0)  -->
<svg version="1.1" id="Capa_1" xmlns="http://www.w3.org/2000/svg" xmlns:xlink="http://www.w3.org/1999/xlink" x="0px" y="0px"
	 viewBox="0 0 720 720" style="enable-background:new 0 0 720 720;" xml:space="preserve">
<style type="text/css">
	.st0{fill:#1A1A1A;}
</style>
<g>
	<g>
		<g>
			<path class="st0" d="M496.1,98.1c-0.9,5.4-2.8,10.1-5,14.8c-4.4,9.8-10.1,18.9-15.8,28.1c-10.4,16.7-21.1,33.7-31.5,50.8
				c-11.4,18.9-21.1,38.5-30.3,58.7c-1.3,2.2-0.9,2.2,0.9,3.5c4.7,3.2,9.5,6.3,12.9,11c4.4,6,5.4,12.6,2.8,19.6
				c-0.9,2.5-2.2,5-3.5,7.3c-2.8,3.8-5.7,7.6-8.8,11c-7.6,7.9-15.1,15.5-22.7,23c-1.3,1.3-2.8,2.5-4.1,3.8c-1.3,0.9-2.2,1.6-3.5,2.2
				c-4.1,2.2-8.2,0.3-8.8-4.4c-0.3-3.2-0.3-6.3,0-9.5c1.3-8.5,4.1-16.7,7.3-24.9c4.4-11.4,9.5-23,14.2-34.4c0.9-2.5,1.3-2.2-1.3-3.8
				c-24.3-13.2-50.5-22.1-77.9-26.8c-24-4.1-48.3-5-72.2-4.1c-3.2,0-6.6,0-9.8,0c-1.9,0-3.8,0.6-5.4,1.9
				c-27.1,22.7-53,46.7-78.5,71.3c-19.6,18.9-38.5,38.5-56.5,59c-1.9,1.9-3.5,4.1-4.7,6.3c-1.3,1.9-3.2,2.5-5,1.6
				c-1.9-0.6-2.8-3.2-2.2-4.7s1.3-3.2,2.5-4.4c4.4-5.4,8.8-11,13.6-16.4c21.8-24,44.8-46.7,68.4-68.8c15.8-14.2,31.9-28.4,47.6-42.6
				c0.6-0.6,1.3-0.9,2.2-1.9c-1.9,0-3.5,0-4.7,0c-19.2,1.3-38.2,2.8-56.8,5.4c-23,2.8-45.7,7.3-68.1,12.3c-9.8,2.5-19.6,4.7-29,6.9
				c-1.3,0.3-2.5,0.6-3.5,0.3c-1.9,0-3.5-1.3-3.8-3.2c-0.6-1.6,0.3-3.5,1.9-4.4c0.6-0.3,1.6-0.6,2.2-0.9
				c18.3-4.1,36.9-8.5,55.2-12.6c14.8-3.2,30-5.4,45.1-7.3c18-2.2,36-3.8,54.3-5c5-0.3,10.1-0.6,15.5-0.9c2.2,0,4.4-0.6,6.3-2.2
				c41.6-34.4,86.1-64.7,133.1-91.2c22.7-12.9,46.4-24.6,71-33.4c9.5-3.5,18.6-6.3,28.4-8.2c5.4-0.6,10.7-1.3,15.8-0.3
				C492.9,82.3,497.3,88.9,496.1,98.1z M482.5,89.3c-2.8-0.6-6-0.6-8.8-0.3c-7.9,0.6-15.5,2.8-22.7,5.4c-24,7.9-47,18.6-69.1,30.6
				c-43.8,24-85.2,51.7-124.9,82.3c-2.8,2.2-6,4.7-8.8,7.3v0.3c2.8,0,5.7,0.3,8.5,0c24.3,0,48.3,1.3,72.2,6
				c25.9,5,50.5,13.6,73.5,26.2c2.5,1.3,2.2,1.6,3.5-0.9c0.3-0.6,0.3-0.9,0.6-1.3c10.7-23,22.1-45.4,35.3-66.9
				c9.5-15.5,19.6-30.9,29-46.4c5-8.2,10.4-16.7,13.9-25.9c1.3-3.2,2.2-6.3,2.8-9.8C488.2,92.1,486.6,89.9,482.5,89.3z M410.6,261.8
				c-1.9-1.3-1.9-1.3-2.8,0.6c-6,13.9-12,27.4-16.4,41.6c-1.6,4.4-2.5,9.1-3.8,13.6c0,0.6,0,1.3,0,1.9c0.6-0.3,1.3-0.6,1.9-0.9
				c4.7-4.7,9.5-9.5,14.2-14.2c0.9-0.9,1.6-2.2,2.5-2.8c3.8-2.5,6.3-5.7,9.1-9.1c2.5-2.8,4.7-6.3,6.3-9.8c0.6-1.9,0.9-3.8,1.3-4.7
				c0-3.5-1.3-6-2.8-8.2C417.5,266.5,414.1,264,410.6,261.8z"/>
		</g>
		<g>
			<path class="st0" d="M665.1,377.7c-0.6,16.4-4.7,32.2-11,47.3c-7.3,17.3-17,33.1-27.8,48.3c-10.1,14.8-21.4,28.7-33.1,42.6
				c-0.6,0.6-0.9,1.6-1.6,2.5c0.9,0,1.9,0,2.8,0.3c4.1,0.3,8.2,0.9,12.3,2.5c4.7,2.2,8.2,5.7,9.5,10.7c1.3,3.8,1.6,7.3,2.2,11
				c0,1.6-0.3,3.2-0.9,4.4c-1.3,2.2-3.5,2.8-5.7,2.2c-1.9-0.6-2.8-2.5-2.5-5c0.6-3.8-0.3-7.3-1.6-10.7c-0.6-2.2-2.5-3.8-4.7-4.7
				c-3.2-1.3-6.3-1.6-9.8-1.9c-2.5,0-4.7,0-7.3,0c-1.9,0-3.2,0.6-4.4,2.2c-15.1,17-30.9,33.4-47.6,49.2
				c-12.6,11.7-25.2,23.3-38.8,33.7c-12.3,9.1-25.2,17.3-39.7,23.7c-7.3,3.2-14.8,5.7-22.7,6.3c-4.4,0.6-8.8,0.3-12.9-1.3
				c-7.3-2.5-11-8.2-10.7-15.8c0-3.8,1.3-7.6,2.5-11c3.2-7.6,7.6-14.2,12.6-20.5c15.8-18.6,34.4-33.7,56.1-44.5
				c24-11.7,48.6-20.5,74.4-26.2c7.3-1.6,14.8-2.5,22.4-3.8c1.3-0.3,2.2-0.6,2.8-1.3c18.6-21.8,36.6-43.8,51.4-68.1
				c8.5-13.6,15.5-27.8,19.9-43.2c3.5-11,5.4-22.4,4.7-33.7c-0.3-3.8-0.9-7.3-1.9-11c-2.5-8.8-8.2-14.8-17-18
				c-8.2-2.8-16.7-3.2-25.5-2.8c-18.9,0.9-36.9,6-54.6,12c-24,8.2-47,18.6-68.4,31.9c-12.9,8.2-24.9,18-35.3,29.3
				c-6.3,7.3-12,14.8-15.1,24c-1.9,4.4-2.5,9.1-2.2,13.9c0.6,5.4,3.2,9.5,7.9,11.7c0.6,0.3,1.3,0.6,1.9,1.3c2.2,1.3,3.2,3.2,2.2,5
				s-2.8,2.8-5.4,1.9c-7.3-2.8-12.3-7.6-14.5-15.1c-1.9-6.3-0.9-12.6,0.9-18.6c2.8-9.8,8.2-18.3,14.5-25.9
				c10.1-12,21.8-22.1,34.7-30.9c15.8-10.7,32.5-18.9,49.8-26.5c18.9-8.2,38.8-14.8,59-19.2c11-2.2,22.1-3.8,33.1-3.5
				c6.6,0.3,12.9,1.3,18.9,3.2c13.6,4.7,21.8,14.2,24.3,27.8C664.1,367.9,664.5,372.9,665.1,377.7z M569.8,529.1
				c-1.3,0.3-1.6,0.3-2.2,0.3c-3.8,0.6-7.9,1.6-11.7,2.2c-27.1,6-52.7,15.5-77,28.4c-19.9,10.1-36.3,24.6-50.2,42
				c-4.1,5-7.6,10.4-9.8,16.4c-0.9,2.8-1.6,5.4-1.3,8.2c0,2.8,1.3,4.7,3.8,6c1.3,0.6,2.5,0.9,3.8,0.9c3.2,0.9,6.6,0.3,9.8,0
				c6.6-1.3,12.9-3.8,19.2-6.6c15.1-6.9,29-16.1,42-26.8c26.2-21.1,49.8-44.5,72.2-69.4C568.9,530.3,569.2,530,569.8,529.1z"/>
		</g>
	</g>
	<path class="st0" d="M697.1,0.5H22.9C10.3,0.5,0,10.8,0,23.4v674.1c0,12.7,10.3,22.9,22.9,22.9h674.1c12.7,0,22.9-10.3,22.9-22.9
		V23.4C720,10.8,709.7,0.5,697.1,0.5z M707.6,696.3c0,6.5-5.3,11.8-11.8,11.8H25.2c-6.5,0-11.8-5.3-11.8-11.8V25.7
		c0-6.5,5.3-11.8,11.8-11.8h670.6c6.5,0,11.8,5.3,11.8,11.8V696.3z"/>
</g>
<g>
</g>
<g>
</g>
<g>
</g>
<g>
</g>
<g>
</g>
<g>
</g>
<g>
</g>
<g>
</g>
<g>
</g>
<g>
</g>
<g>
</g>
<g>
</g>
<g>
</g>
<g>
</g>
<g>
</g>
</svg>
